<mxfile host="app.diagrams.net" modified="2021-02-08T00:11:39.344Z" agent="5.0 (X11; Linux x86_64) AppleWebKit/537.36 (KHTML, like Gecko) Chrome/88.0.4324.150 Safari/537.36" etag="U7UpIA_MqR35rHHnXd9j" version="14.2.9" type="github">
  <diagram id="oe8qgWRhZwkx6S1Wg-bM" name="Page-1">
    <mxGraphModel dx="1408" dy="1750" grid="1" gridSize="10" guides="1" tooltips="1" connect="1" arrows="1" fold="1" page="1" pageScale="1" pageWidth="827" pageHeight="1169" math="0" shadow="0">
      <root>
        <mxCell id="0" />
        <mxCell id="1" parent="0" />
        <mxCell id="d7ecfk8f8y5RkIkmp8_E-1" value="&lt;font style=&quot;font-size: 20px&quot;&gt;SRC&lt;/font&gt;" style="text;html=1;strokeColor=none;fillColor=none;align=center;verticalAlign=middle;whiteSpace=wrap;rounded=0;" vertex="1" parent="1">
          <mxGeometry x="220" y="140" width="40" height="20" as="geometry" />
        </mxCell>
        <mxCell id="d7ecfk8f8y5RkIkmp8_E-3" value="&lt;font style=&quot;font-size: 16px&quot;&gt;Assets&lt;/font&gt;" style="text;html=1;strokeColor=none;fillColor=none;align=left;verticalAlign=middle;whiteSpace=wrap;rounded=0;" vertex="1" parent="1">
          <mxGeometry x="280" y="185" width="40" height="20" as="geometry" />
        </mxCell>
        <mxCell id="d7ecfk8f8y5RkIkmp8_E-5" value="&lt;font style=&quot;font-size: 16px&quot;&gt;Component&lt;/font&gt;" style="text;html=1;strokeColor=none;fillColor=none;align=left;verticalAlign=middle;whiteSpace=wrap;rounded=0;" vertex="1" parent="1">
          <mxGeometry x="280" y="241" width="40" height="20" as="geometry" />
        </mxCell>
        <mxCell id="d7ecfk8f8y5RkIkmp8_E-6" value="&lt;font style=&quot;font-size: 16px&quot;&gt;Views&lt;/font&gt;" style="text;html=1;strokeColor=none;fillColor=none;align=left;verticalAlign=middle;whiteSpace=wrap;rounded=0;" vertex="1" parent="1">
          <mxGeometry x="281" y="304" width="40" height="20" as="geometry" />
        </mxCell>
        <mxCell id="d7ecfk8f8y5RkIkmp8_E-7" value="&lt;font style=&quot;font-size: 16px&quot;&gt;App.js&lt;/font&gt;" style="text;html=1;strokeColor=none;fillColor=none;align=left;verticalAlign=middle;whiteSpace=wrap;rounded=0;" vertex="1" parent="1">
          <mxGeometry x="281" y="360" width="40" height="20" as="geometry" />
        </mxCell>
        <mxCell id="d7ecfk8f8y5RkIkmp8_E-8" value="&lt;span style=&quot;font-size: 16px&quot;&gt;index.jsx&lt;/span&gt;" style="text;html=1;strokeColor=none;fillColor=none;align=left;verticalAlign=middle;whiteSpace=wrap;rounded=0;" vertex="1" parent="1">
          <mxGeometry x="280" y="400" width="40" height="20" as="geometry" />
        </mxCell>
        <mxCell id="d7ecfk8f8y5RkIkmp8_E-9" value="&lt;font style=&quot;font-size: 16px&quot;&gt;img&lt;/font&gt;" style="text;html=1;strokeColor=none;fillColor=none;align=left;verticalAlign=middle;whiteSpace=wrap;rounded=0;" vertex="1" parent="1">
          <mxGeometry x="320" y="211" width="40" height="20" as="geometry" />
        </mxCell>
        <mxCell id="d7ecfk8f8y5RkIkmp8_E-10" value="" style="endArrow=none;html=1;" edge="1" parent="1">
          <mxGeometry width="50" height="50" relative="1" as="geometry">
            <mxPoint x="240" y="423" as="sourcePoint" />
            <mxPoint x="240" y="163" as="targetPoint" />
          </mxGeometry>
        </mxCell>
        <mxCell id="d7ecfk8f8y5RkIkmp8_E-11" value="" style="endArrow=none;html=1;exitX=0;exitY=0.75;exitDx=0;exitDy=0;" edge="1" parent="1" source="d7ecfk8f8y5RkIkmp8_E-3">
          <mxGeometry width="50" height="50" relative="1" as="geometry">
            <mxPoint x="190" y="270" as="sourcePoint" />
            <mxPoint x="240" y="200" as="targetPoint" />
          </mxGeometry>
        </mxCell>
        <mxCell id="d7ecfk8f8y5RkIkmp8_E-12" value="" style="endArrow=none;html=1;exitX=0;exitY=0.75;exitDx=0;exitDy=0;" edge="1" parent="1" source="d7ecfk8f8y5RkIkmp8_E-5">
          <mxGeometry width="50" height="50" relative="1" as="geometry">
            <mxPoint x="190" y="270" as="sourcePoint" />
            <mxPoint x="240" y="256" as="targetPoint" />
          </mxGeometry>
        </mxCell>
        <mxCell id="d7ecfk8f8y5RkIkmp8_E-13" value="" style="endArrow=none;html=1;exitX=0;exitY=0.5;exitDx=0;exitDy=0;" edge="1" parent="1">
          <mxGeometry width="50" height="50" relative="1" as="geometry">
            <mxPoint x="281" y="319" as="sourcePoint" />
            <mxPoint x="240" y="319" as="targetPoint" />
          </mxGeometry>
        </mxCell>
        <mxCell id="d7ecfk8f8y5RkIkmp8_E-14" value="" style="endArrow=none;html=1;exitX=0;exitY=0.5;exitDx=0;exitDy=0;" edge="1" parent="1" source="d7ecfk8f8y5RkIkmp8_E-7">
          <mxGeometry width="50" height="50" relative="1" as="geometry">
            <mxPoint x="190" y="270" as="sourcePoint" />
            <mxPoint x="240" y="370" as="targetPoint" />
          </mxGeometry>
        </mxCell>
        <mxCell id="d7ecfk8f8y5RkIkmp8_E-15" value="" style="endArrow=none;html=1;exitX=0;exitY=0.5;exitDx=0;exitDy=0;" edge="1" parent="1" source="d7ecfk8f8y5RkIkmp8_E-8">
          <mxGeometry width="50" height="50" relative="1" as="geometry">
            <mxPoint x="190" y="270" as="sourcePoint" />
            <mxPoint x="240" y="410" as="targetPoint" />
          </mxGeometry>
        </mxCell>
        <mxCell id="d7ecfk8f8y5RkIkmp8_E-16" value="" style="endArrow=none;html=1;entryX=0.5;entryY=1;entryDx=0;entryDy=0;" edge="1" parent="1">
          <mxGeometry width="50" height="50" relative="1" as="geometry">
            <mxPoint x="300" y="222" as="sourcePoint" />
            <mxPoint x="300" y="204" as="targetPoint" />
          </mxGeometry>
        </mxCell>
        <mxCell id="d7ecfk8f8y5RkIkmp8_E-17" value="" style="endArrow=none;html=1;" edge="1" parent="1">
          <mxGeometry width="50" height="50" relative="1" as="geometry">
            <mxPoint x="320" y="222" as="sourcePoint" />
            <mxPoint x="300" y="222" as="targetPoint" />
          </mxGeometry>
        </mxCell>
      </root>
    </mxGraphModel>
  </diagram>
</mxfile>
